<svg id="Layer_1" data-name="Layer 1" xmlns="http://www.w3.org/2000/svg" viewBox="0 0 293.18 272.94"><defs><style>.cls-1{fill:#fff;}.cls-2{fill:#231f20;}.cls-3{fill:none;}</style></defs><title>Artboard 2</title><path d="M225.36,128.65q6.94-3.42,13.89-6.84,5.16-2.53,10.35-5c2.12-1,4.26-1.51,6.52.13.23,2.34-1.34,3.43-3.1,4.22-9.53,4.27-18.27,10-27.4,15-.46.25-1,.36-1.44.61-7,3.83-6.53,7.69-2.81,13.08,1.38,2,2.69,2.71,4.7,1.38,2.61-1.72,5.09-3.65,7.69-5.4,2.92-2,4.83-5.46,8.78-6.24,2,3.61-.53,6.46-2.13,8.1-4.06,4.17-7.93,8.82-13.94,10.7-3.53,1.1-6.51.89-9.08-1.83-2.36-2.5-4.64-5.09-7.17-7.87-3.4,2.75-7.12,5.56-10.62,8.63a35.72,35.72,0,0,1-23.31,9.35c-7.93.17-15.24-1.58-20.47-9.08-.9,1.27-1.56,2.17-2.17,3.09-1.05,1.6-1.83,3.45-3.16,4.75-1.11,1.09-3.3,2.51-4.2,2.08-1.44-.68-2.37-2.69-3.18-4.31-.43-.84-.15-2-.22-3.94-3.43,2.19-6.62,3.87-9.41,6.07-5.11,4-11.06,6.1-17.22,7.21-2.81.5-6.08-.77-9-1.72-1.88-.62-3.49-2.1-5.19-3.25-1.5-1-1.82-2.27-1.1-4.06a18.27,18.27,0,0,0,1.37-5.51c.58-8.51,4.7-15.2,10.53-21,2-2,4.36-3.78,7.45-2.22,2.89,1.46,4.19,4.87,3.44,8.62-1.23,6.09-3.64,11.56-8.24,15.93-1.62,1.53-3.1,3.2-4.59,4.75,1.12,2.39,3,2.09,4.6,1.53,4.27-1.45,8.69-2.71,12.65-4.8a102.76,102.76,0,0,0,12.16-8.15c3.41-2.47,6.51-5.25,8.28-9.28a5.14,5.14,0,0,1,2.54-2.41c2.62-1.07,4.62.21,5.27,3.13.18.83.21,1.69.35,2.82,3.5.26,5.25,2.25,6.06,5.5,1.34,5.39,9.9,7.61,15.56,6.81,9.56-1.34,17.3-6.11,24-12.84,6.16-6.22,11.51-12.9,12.47-22.12.56-5.33,3.54-9.8,5.86-14.45,1.54-3.1,3.73-3.84,5.9-2.89,2.65,1.17,2.9,3.4,2.3,5.73-1,4-2.33,8-3.51,12.06l-.87,2.91ZM117.84,141.12c-4.06,1.18-7.13,7.08-6.71,12.91C115.29,150.41,118.11,145,117.84,141.12Z"/><path class="cls-1" d="M63.8,135.11l-9.38,4.74c-.64-5.11.95-8.62,3.55-13C60,129.78,61.66,132.1,63.8,135.11Z"/><path class="cls-2" d="M130.06,195h-1.45V183.36h3.77c3,0,3.86,1.64,3.86,3.48,0,2.75-1.63,3.9-4.42,3.9h-1.76Zm1.65-5.47c1.68,0,3-.4,3-2.56,0-1.67-.91-2.31-2.77-2.31h-1.89v4.87Z"/><path class="cls-2" d="M147,195h-1.47V189.7h-5.64V195h-1.47V183.36h1.47v5h5.64v-5H147Z"/><path class="cls-2" d="M149.37,189.16c0-3.44,1.91-6,5.45-6s5.1,2.56,5.1,5.77c0,3.77-1.81,6.21-5.34,6.21S149.37,192.63,149.37,189.16Zm9-.08c0-3.06-1.44-4.63-3.65-4.63s-3.86,1.6-3.86,4.69,1.5,4.71,3.75,4.71S158.42,192.36,158.42,189.08Z"/><path class="cls-2" d="M163.81,195V184.64H160.3v-1.28h8.45v1.28h-3.47V195Z"/><path class="cls-2" d="M169.13,189.16c0-3.44,1.91-6,5.45-6s5.1,2.56,5.1,5.77c0,3.77-1.81,6.21-5.34,6.21S169.13,192.63,169.13,189.16Zm9.05-.08c0-3.06-1.44-4.63-3.65-4.63s-3.86,1.6-3.86,4.69,1.5,4.71,3.75,4.71S178.18,192.36,178.18,189.08Z"/><path class="cls-2" d="M189.71,193.38c-.41,1-1.87,1.76-3.49,1.76-3.49,0-4.94-2.4-4.94-5.84,0-3.92,2.05-6.14,5.42-6.14,2.44,0,4.09,1.07,4.29,3.85l-1.41.15c-.19-1.88-1.12-2.72-2.92-2.72-2.45,0-3.86,1.72-3.86,4.73,0,3.59,1.57,4.73,3.71,4.73a2.82,2.82,0,0,0,3.09-2.77v-1h-3.07v-1.2H191v6h-1.07Z"/><path class="cls-2" d="M202.11,195h-1.6l-2.66-4.82h-2.6V195h-1.46V183.36h4c2.88,0,3.74,1.57,3.74,3.16a3.14,3.14,0,0,1-2.24,3.23Zm-4.7-6c1.52,0,2.57-.51,2.57-2.3,0-1.57-1-2-2.72-2h-2v4.29Z"/><path class="cls-2" d="M208.66,183.36l4,11.59h-1.62l-1.17-3.44h-4.45L204.32,195h-1.49l3.9-11.59Zm-1,1.35h0l-1.85,5.54h3.73Z"/><path class="cls-2" d="M216.24,195h-1.46V183.36h3.78c3,0,3.86,1.64,3.86,3.48,0,2.75-1.64,3.9-4.42,3.9h-1.76Zm1.65-5.47c1.68,0,3-.4,3-2.56,0-1.67-.92-2.31-2.77-2.31h-1.89v4.87Z"/><path class="cls-2" d="M233.22,195h-1.48V189.7h-5.63V195h-1.47V183.36h1.47v5h5.63v-5h1.48Z"/><path class="cls-2" d="M240.1,195h-1.48v-4.48l-4-7.11h1.66l3,5.65h0l3-5.65h1.52l-3.79,7.08Z"/><path class="cls-3" d="M54.42,139.85l9.38-4.74c-2.14-3-3.77-5.33-5.83-8.23C55.37,131.23,53.78,134.74,54.42,139.85Z"/><path d="M46.11,191.21a62.74,62.74,0,0,0-2.19,10.14A3.09,3.09,0,0,0,47,204.9a5.79,5.79,0,0,0,3.76-2.2c.8-1,.87-2.61,1.12-4,.73-3.94,1.06-8,2.14-11.83.18-.63.38-1.26.56-1.9H48Q47.06,188.12,46.11,191.21Z"/><path d="M54.3,165.3h6.5c1-3.3,2-6.58,3.06-9.85H57.4C56.33,158.81,55.3,162.08,54.3,165.3Z"/><path d="M51.15,175.15H57.7q1.45-5,3.08-9.85H54.27C53.2,168.66,52.16,171.92,51.15,175.15Z"/><path d="M48,185h6.6q1.47-5,3.1-9.85H51.19C50.11,178.51,49.06,181.77,48,185Z"/><path d="M119.31,85.86c.48-.7,1.2-1.64,1-2.3-.31-1.39-.81-3.11-1.84-3.84-.73-.52-2.53.14-3.69.65-.68.3-1,1.33-1.54,2-3.67,5.28-7.38,10.54-11,15.86-7.59,11.2-17.65,20-28.15,29.35a14.32,14.32,0,0,1,0-3.09c1.75-6,3.65-12,5.33-18C82.64,95.26,85.73,84,88.69,72.73a43.13,43.13,0,0,0,1.15-8.26c.2-3.29-1-4.77-3.3-4.85s-4,1.64-4,4.52c-.1,9.72-3.07,18.91-5.36,28.19-2.51,10.15-5.59,20.16-8.47,30.21A25.67,25.67,0,0,1,67,126c-1.23-1.69-2-2.84-2.83-3.89-3.94-4.78-9.44-3.92-12.36,1.38a41.26,41.26,0,0,0-4.6,14.86c-.75,5.8,3.81,9.24,9.26,7,1.22-.5,2.42-1,4.74-2-1.34,4.23-2.62,8.23-3.85,12.1h6.46c.94-2.9,1.91-5.8,2.85-8.71a23.68,23.68,0,0,1,1.92-3.32c1.76,4.5,3.08,8,4.53,11.51,1.67,4,2.8,8.47,5.33,11.86,5.15,6.88,9.29,7.76,14.32,3.43,3.53-3,5.51-7.16,7.21-11.38.24-.62-.12-2.07-.56-2.25a3.23,3.23,0,0,0-2.75.18,40.29,40.29,0,0,0-4.85,4.75c-4.38,4.95-6.1,4.71-8.91-1.42-.37-.79-.56-1.66-.89-2.46q-3.84-9.45-7.71-18.9c-.45-1.08-.9-2.16-1.36-3.29,4.68-4,9-8,13.64-11.72C99.87,113.12,109.72,99.61,119.31,85.86Zm-64.89,54c-.64-5.11.95-8.62,3.55-13,2.06,2.9,3.69,5.22,5.83,8.23Z"/></svg>