<svg id="Layer_1" data-name="Layer 1" xmlns="http://www.w3.org/2000/svg" viewBox="0 0 510.18 365.76"><defs><style>.cls-1{fill:#fff;}.cls-2{fill:#231f20;}.cls-3{fill:none;}</style></defs><title>Artboard 2 copy 8</title><path d="M378.86,169.09c7.79-3.84,15.58-7.7,23.38-11.52q8.68-4.26,17.42-8.42c3.57-1.7,7.17-2.53,11,.23.39,3.93-2.25,5.77-5.22,7.1-16,7.18-30.75,16.75-46.11,25.15-.77.42-1.66.61-2.43,1-11.81,6.46-11,12.94-4.72,22,2.32,3.35,4.53,4.56,7.91,2.33,4.4-2.91,8.57-6.15,12.93-9.09,4.93-3.33,8.14-9.2,14.79-10.51,3.39,6.08-.9,10.88-3.58,13.64-6.83,7-13.36,14.84-23.46,18-5.95,1.86-11,1.5-15.29-3.07-4-4.21-7.81-8.56-12.07-13.26-5.72,4.63-12,9.37-17.87,14.53-11.27,9.89-24.3,15.42-39.24,15.74-13.34.28-25.65-2.65-34.46-15.28-1.5,2.14-2.62,3.64-3.65,5.21-1.76,2.68-3.08,5.79-5.31,8-1.88,1.84-5.55,4.23-7.08,3.51-2.41-1.15-4-4.54-5.35-7.25-.72-1.43-.25-3.45-.37-6.64-5.77,3.68-11.14,6.51-15.83,10.21-8.6,6.78-18.62,10.27-29,12.13-4.74.86-10.23-1.28-15.12-2.89-3.16-1-5.87-3.53-8.72-5.46-2.54-1.71-3.08-3.83-1.86-6.84a30.93,30.93,0,0,0,2.31-9.27c1-14.32,7.9-25.58,17.72-35.35,3.38-3.37,7.34-6.35,12.54-3.73,4.87,2.45,7.05,8.2,5.78,14.51-2.06,10.25-6.13,19.46-13.86,26.8-2.72,2.59-5.22,5.4-7.73,8,1.88,4,5,3.5,7.75,2.57,7.19-2.44,14.62-4.57,21.28-8.08,7.23-3.81,13.83-8.89,20.48-13.72,5.73-4.15,11-8.84,13.93-15.61a8.59,8.59,0,0,1,4.28-4.06c4.41-1.81,7.77.34,8.86,5.27.31,1.39.36,2.84.59,4.75,5.9.42,8.84,3.78,10.2,9.24,2.26,9.08,16.68,12.81,26.19,11.47,16.1-2.26,29.12-10.28,40.32-21.61,10.36-10.48,19.36-21.72,21-37.23.94-9,6-16.5,9.86-24.33,2.59-5.21,6.28-6.45,9.93-4.85,4.46,2,4.88,5.71,3.87,9.63-1.76,6.82-3.92,13.54-5.91,20.31l-1.47,4.9Zm-181,21c-6.83,2-12,11.92-11.3,21.73C193.59,205.71,198.34,196.58,197.89,190.08Z"/><path class="cls-1" d="M106.93,180l-15.78,8c-1.09-8.61,1.6-14.51,6-21.84Z"/><path class="cls-2" d="M165.3,297.3h-3.41V270.17h8.85c6.93,0,9,3.83,9,8.14,0,6.44-3.83,9.14-10.35,9.14H165.3Zm3.86-12.81c3.94,0,7-.94,7-6,0-3.89-2.13-5.39-6.48-5.39H165.3v11.39Z"/><path class="cls-2" d="M205.05,297.3H201.6V285H188.41V297.3H185V270.17h3.45V281.9H201.6V270.17h3.45Z"/><path class="cls-2" d="M210.5,283.74c0-8.06,4.46-14.05,12.74-14.05s11.95,6,11.95,13.52c0,8.81-4.23,14.54-12.51,14.54S210.5,291.87,210.5,283.74Zm21.17-.19c0-7.16-3.37-10.83-8.54-10.83s-9,3.75-9,11,3.52,11,8.77,11S231.67,291.23,231.67,283.55Z"/><path class="cls-2" d="M244.29,297.3V273.17h-8.21v-3h19.78v3h-8.13V297.3Z"/><path class="cls-2" d="M256.75,283.74c0-8.06,4.46-14.05,12.74-14.05s11.95,6,11.95,13.52c0,8.81-4.23,14.54-12.51,14.54S256.75,291.87,256.75,283.74Zm21.17-.19c0-7.16-3.37-10.83-8.54-10.83s-9,3.75-9,11,3.52,11,8.77,11S277.92,291.23,277.92,283.55Z"/><path class="cls-2" d="M304.92,293.63c-1,2.32-4.38,4.12-8.16,4.12-8.17,0-11.58-5.62-11.58-13.68,0-9.17,4.8-14.38,12.7-14.38,5.7,0,9.55,2.51,10,9l-3.29.34c-.46-4.39-2.63-6.38-6.86-6.38-5.73,0-9,4.05-9,11.1,0,8.39,3.67,11.05,8.69,11.05s7.23-3.3,7.23-6.48V286h-7.19v-2.81h10.45V297.3h-2.51Z"/><path class="cls-2" d="M334,297.3H330.2L324,286h-6.1V297.3h-3.41V270.17h9.29c6.74,0,8.77,3.68,8.77,7.39a7.36,7.36,0,0,1-5.25,7.56Zm-11-14.16c3.56,0,6-1.2,6-5.4,0-3.67-2.48-4.64-6.37-4.64h-4.72v10Z"/><path class="cls-2" d="M349.26,270.17l9.44,27.13h-3.78l-2.74-8.05H341.77l-2.66,8.05h-3.48l9.14-27.13ZM347,273.32h0l-4.35,13h8.73Z"/><path class="cls-2" d="M367,297.3H363.6V270.17h8.84c6.94,0,9,3.83,9,8.14,0,6.44-3.82,9.14-10.34,9.14H367Zm3.86-12.81c3.94,0,7-.94,7-6,0-3.89-2.13-5.39-6.48-5.39H367v11.39Z"/><path class="cls-2" d="M406.75,297.3h-3.44V285H390.12V297.3h-3.45V270.17h3.45V281.9h13.19V270.17h3.44Z"/><path class="cls-2" d="M422.85,297.3h-3.44V286.81l-9.26-16.64h3.9l7.12,13.23h.07l6.93-13.23h3.56l-8.88,16.57Z"/><path class="cls-3" d="M91.15,187.94l15.78-8L97.11,166.1C92.75,173.43,90.06,179.33,91.15,187.94Z"/><path d="M77.15,274.39a105.8,105.8,0,0,0-3.67,17.06,5.21,5.21,0,0,0,5.25,6c2.19-.06,4.88-1.88,6.32-3.71s1.47-4.39,1.89-6.69c1.22-6.63,1.77-13.44,3.6-19.9.3-1.07.63-2.13.95-3.2H80.39C79.29,267.43,78.21,270.9,77.15,274.39Z"/><path d="M90.94,230.77h11c1.61-5.55,3.34-11.07,5.14-16.57H96.16C94.36,219.85,92.62,225.34,90.94,230.77Z"/><path d="M85.64,247.35h11c1.62-5.55,3.37-11.07,5.18-16.58H90.9C89.09,236.42,87.34,241.92,85.64,247.35Z"/><path d="M80.4,263.93H91.52c1.64-5.56,3.39-11.08,5.21-16.58h-11C83.88,253,82.12,258.5,80.4,263.93Z"/><path d="M200.36,97.06c.82-1.18,2-2.76,1.78-3.88-.52-2.33-1.37-5.22-3.1-6.46-1.23-.88-4.26.25-6.22,1.1-1.14.51-1.77,2.23-2.6,3.43-6.17,8.89-12.41,17.74-18.49,26.7C159,136.79,142,151.58,124.35,167.34c0-2.53-.31-4,0-5.19,2.93-10.14,6.13-20.2,9-30.36C138.64,112.88,143.84,94,148.82,75a72.15,72.15,0,0,0,1.94-13.91c.34-5.54-1.62-8-5.56-8.17s-6.73,2.76-6.78,7.61c-.17,16.37-5.17,31.83-9,47.45-4.21,17.08-9.4,33.93-14.25,50.85-.49,1.72-1.53,3.28-2.76,5.83-2.06-2.86-3.3-4.79-4.75-6.56-6.63-8-15.9-6.6-20.81,2.32a69.46,69.46,0,0,0-7.74,25c-1.26,9.77,6.41,15.55,15.58,11.81,2-.83,4.07-1.73,8-3.4-2.25,7.12-4.4,13.85-6.48,20.38H107c1.59-4.9,3.21-9.78,4.81-14.67.45-1.4,1.48-2.62,3.22-5.58,3,7.56,5.18,13.51,7.62,19.37,2.82,6.75,4.72,14.25,9,20,8.65,11.59,15.62,13.07,24.08,5.78,5.95-5.11,9.29-12.05,12.14-19.16.42-1-.2-3.48-.94-3.78-1.34-.53-3.6-.53-4.63.3a67.75,67.75,0,0,0-8.16,8c-7.37,8.33-10.26,7.92-15-2.39-.61-1.33-.94-2.79-1.49-4.15q-6.48-15.9-13-31.8c-.74-1.82-1.5-3.64-2.28-5.54,7.88-6.8,15.22-13.52,23-19.73C167.64,142.94,184.22,120.2,200.36,97.06ZM91.15,187.94c-1.09-8.61,1.6-14.51,6-21.84L106.93,180Z"/></svg>